<svg xmlns="http://www.w3.org/2000/svg" viewBox="0 0 1393.603 1244.093">
  <defs>
    <style>
      .cls-1 {
        fill: #d0d7e3;
      }

      .cls-2 {
        fill: #fff;
      }
    </style>
  </defs>
  <g id="Group_87" data-name="Group 87" transform="translate(-2416 -2292)">
    <path id="Path_76" data-name="Path 76" class="cls-1" d="M63.789,115.579h0a57.792,57.792,0,0,0,57.789-57.789h0A57.792,57.792,0,0,0,63.789,0h0A57.792,57.792,0,0,0,6,57.789H6A57.792,57.792,0,0,0,63.789,115.579Z" transform="translate(2496.684 2292)"/>
    <path id="Path_77" data-name="Path 77" class="cls-1" d="M54.566,158.131h0a50.566,50.566,0,0,0,50.566-50.566h0A50.566,50.566,0,0,0,54.566,57h0A50.566,50.566,0,0,0,4,107.566H4A50.566,50.566,0,0,0,54.566,158.131Z" transform="translate(2469.789 3377.961)"/>
    <path id="Path_78" data-name="Path 78" class="cls-1" d="M1350.052,398.5h0c0-48.306-43.877-87.475-97.988-87.475H1066.977c-48.1,0-87.1-34.815-87.1-77.756h0c0-42.941,39-77.756,87.1-77.756h43.55c48.1,0,87.1-34.815,87.1-77.756h0c0-42.941-39-77.756-87.1-77.756H435.5c-48.1,0-87.1,34.815-87.1,77.756h0c0,42.941,39,77.756,87.1,77.756h43.55c36.081,0,65.325,26.107,65.325,58.317h0c0,32.21-29.244,58.317-65.325,58.317H163.313c-42.091,0-76.213,30.461-76.213,68.036h0c0,37.576,34.121,68.036,76.213,68.036h32.663c36.081,0,65.325,26.107,65.325,58.317h0c0,32.21-29.244,58.317-65.325,58.317h-87.1C48.754,524.852,0,568.375,0,622.046H0c0,53.671,48.754,97.195,108.875,97.195h54.438c42.091,0,76.213,30.461,76.213,68.036h0c0,37.576-34.121,68.036-76.213,68.036H130.65c-48.1,0-87.1,34.815-87.1,77.756h0c0,42.941,39,77.756,87.1,77.756H381.063c30.071,0,54.438,21.752,54.438,48.6h0c0,26.845-24.366,48.6-54.438,48.6h0c-42.091,0-76.213,30.461-76.213,68.036h0c0,37.575,34.121,68.036,76.213,68.036h653.251c42.091,0,76.213-30.461,76.213-68.036h0c0-37.575-34.122-68.036-76.213-68.036h-10.888c-24.061,0-43.55-17.4-43.55-38.878h0c0-21.48,19.489-38.878,43.55-38.878H1306.5c48.1,0,87.1-34.815,87.1-77.756h0c0-42.941-39-77.756-87.1-77.756H1230.29c-30.071,0-54.437-21.752-54.437-48.6h0c0-26.845,24.366-48.6,54.438-48.6h10.888c48.1,0,87.1-34.815,87.1-77.756h0c0-42.941-39-77.756-87.1-77.756H1143.19c-42.091,0-76.213-30.461-76.213-68.036h0c0-37.576,34.122-68.036,76.213-68.036h108.875C1306.176,485.974,1350.052,446.8,1350.052,398.5Z" transform="translate(2416 2292)"/>
    <path id="Path_79" data-name="Path 79" class="cls-2" d="M61.566,229.71h520.1a50.566,50.566,0,0,1,50.566,50.566h0a50.566,50.566,0,0,1-50.566,50.566H61.566A50.566,50.566,0,0,1,11,280.276h0A50.566,50.566,0,0,1,61.566,229.71ZM11,63.566h0a50.566,50.566,0,0,0,50.566,50.566h520.1a50.566,50.566,0,0,0,50.566-50.566h0A50.566,50.566,0,0,0,581.669,13H61.566A50.566,50.566,0,0,0,11,63.566Zm0,433.42h0a50.566,50.566,0,0,0,50.566,50.566h520.1a50.566,50.566,0,0,0,50.566-50.566h0a50.566,50.566,0,0,0-50.566-50.566H61.566A50.566,50.566,0,0,0,11,496.985Z" transform="translate(2809.573 2620.631)"/>
  </g>
</svg>
